<mxfile host="Electron" modified="2023-05-12T20:14:36.349Z" agent="Mozilla/5.0 (Windows NT 10.0; Win64; x64) AppleWebKit/537.36 (KHTML, like Gecko) draw.io/21.2.8 Chrome/112.0.5615.165 Electron/24.2.0 Safari/537.36" etag="tC16alkuu2PTnklocsG5" version="21.2.8" type="device">
  <diagram name="Page-1" id="IovuPlnuYOxv74p460Sw">
    <mxGraphModel dx="2876" dy="1171" grid="1" gridSize="10" guides="1" tooltips="1" connect="1" arrows="1" fold="1" page="1" pageScale="1" pageWidth="850" pageHeight="1100" math="0" shadow="0">
      <root>
        <mxCell id="0" />
        <mxCell id="1" parent="0" />
        <mxCell id="tjZRGbeKw34wrT0C9eUE-6" value="" style="rounded=0;whiteSpace=wrap;html=1;fillColor=#FFFFFF;strokeWidth=2;strokeColor=#009900;" parent="1" vertex="1">
          <mxGeometry x="-107.5" y="370" width="25" height="500" as="geometry" />
        </mxCell>
        <mxCell id="tjZRGbeKw34wrT0C9eUE-10" value="" style="rounded=0;whiteSpace=wrap;html=1;fillColor=#FFFFFF;strokeWidth=2;strokeColor=#009900;" parent="1" vertex="1">
          <mxGeometry x="302.5" y="550" width="25" height="80" as="geometry" />
        </mxCell>
        <mxCell id="lFbvkqLxVyMuqr9iLAXJ-2" value="&lt;font color=&quot;#009900&quot; style=&quot;&quot;&gt;&lt;b style=&quot;&quot;&gt;&lt;br&gt;&lt;/b&gt;&lt;/font&gt;" style="rounded=0;whiteSpace=wrap;html=1;strokeWidth=1;fillColor=none;strokeColor=#009900;movable=0;resizable=0;rotatable=0;deletable=0;editable=0;locked=1;connectable=0;" parent="1" vertex="1">
          <mxGeometry x="-190" y="568.75" width="720" height="261.25" as="geometry" />
        </mxCell>
        <mxCell id="tjZRGbeKw34wrT0C9eUE-2" value="&lt;i style=&quot;border-color: var(--border-color); color: rgb(0, 153, 0);&quot;&gt;&lt;font style=&quot;border-color: var(--border-color); font-size: 15px;&quot;&gt;&amp;lt;&amp;lt;HttpServlet&amp;gt;&amp;gt;&lt;/font&gt;&lt;/i&gt;&lt;font color=&quot;#009900&quot; style=&quot;&quot;&gt;&lt;b style=&quot;&quot;&gt;&lt;br&gt;&lt;font style=&quot;font-size: 18px;&quot;&gt;doLogin&lt;/font&gt;&lt;br&gt;&lt;/b&gt;&lt;/font&gt;" style="rounded=0;whiteSpace=wrap;html=1;strokeWidth=3;fillColor=default;strokeColor=#009900;" parent="1" vertex="1">
          <mxGeometry x="-170" y="220" width="150" height="60" as="geometry" />
        </mxCell>
        <mxCell id="tjZRGbeKw34wrT0C9eUE-3" value="&lt;font color=&quot;#009900&quot; style=&quot;&quot;&gt;&lt;i style=&quot;&quot;&gt;&lt;font style=&quot;font-size: 15px;&quot;&gt;&amp;lt;&amp;lt;Class&amp;gt;&amp;gt;&lt;/font&gt;&lt;/i&gt;&lt;br&gt;&lt;span style=&quot;font-size: 18px;&quot;&gt;&lt;b&gt;User&lt;/b&gt;&lt;/span&gt;&lt;br&gt;&lt;/font&gt;" style="rounded=0;whiteSpace=wrap;html=1;strokeWidth=3;fillColor=default;strokeColor=#009900;" parent="1" vertex="1">
          <mxGeometry x="76.5" y="222" width="150" height="60" as="geometry" />
        </mxCell>
        <mxCell id="tjZRGbeKw34wrT0C9eUE-4" value="" style="endArrow=none;html=1;rounded=0;entryX=0.5;entryY=1;entryDx=0;entryDy=0;strokeWidth=2;fillColor=#d5e8d4;strokeColor=#009900;dashed=1;" parent="1" source="tjZRGbeKw34wrT0C9eUE-6" target="tjZRGbeKw34wrT0C9eUE-2" edge="1">
          <mxGeometry width="50" height="50" relative="1" as="geometry">
            <mxPoint x="-95" y="670" as="sourcePoint" />
            <mxPoint x="150" y="440" as="targetPoint" />
          </mxGeometry>
        </mxCell>
        <mxCell id="tjZRGbeKw34wrT0C9eUE-5" value="" style="endArrow=none;html=1;rounded=0;strokeWidth=2;fillColor=#d5e8d4;strokeColor=#009900;dashed=1;entryX=0.5;entryY=1;entryDx=0;entryDy=0;" parent="1" source="tjZRGbeKw34wrT0C9eUE-10" target="lFbvkqLxVyMuqr9iLAXJ-19" edge="1">
          <mxGeometry width="50" height="50" relative="1" as="geometry">
            <mxPoint x="315" y="671" as="sourcePoint" />
            <mxPoint x="315" y="300" as="targetPoint" />
          </mxGeometry>
        </mxCell>
        <mxCell id="tjZRGbeKw34wrT0C9eUE-7" value="" style="endArrow=none;html=1;rounded=0;strokeWidth=2;fillColor=#d5e8d4;strokeColor=#009900;dashed=1;entryX=0.5;entryY=1;entryDx=0;entryDy=0;" parent="1" target="tjZRGbeKw34wrT0C9eUE-6" edge="1">
          <mxGeometry width="50" height="50" relative="1" as="geometry">
            <mxPoint x="-95" y="910" as="sourcePoint" />
            <mxPoint x="-94.59999999999945" y="796.2599999999998" as="targetPoint" />
          </mxGeometry>
        </mxCell>
        <mxCell id="tjZRGbeKw34wrT0C9eUE-9" value="" style="endArrow=none;html=1;rounded=0;strokeWidth=2;strokeColor=#009900;startArrow=classic;startFill=1;" parent="1" edge="1">
          <mxGeometry width="50" height="50" relative="1" as="geometry">
            <mxPoint x="300" y="600" as="sourcePoint" />
            <mxPoint x="-82" y="600" as="targetPoint" />
          </mxGeometry>
        </mxCell>
        <mxCell id="tjZRGbeKw34wrT0C9eUE-11" value="" style="endArrow=none;html=1;rounded=0;strokeWidth=2;fillColor=#d5e8d4;strokeColor=#009900;dashed=1;entryX=0.492;entryY=1.014;entryDx=0;entryDy=0;entryPerimeter=0;" parent="1" target="tjZRGbeKw34wrT0C9eUE-10" edge="1">
          <mxGeometry width="50" height="50" relative="1" as="geometry">
            <mxPoint x="315" y="910" as="sourcePoint" />
            <mxPoint x="315" y="775" as="targetPoint" />
          </mxGeometry>
        </mxCell>
        <mxCell id="tjZRGbeKw34wrT0C9eUE-22" value="&lt;font style=&quot;font-size: 14px;&quot;&gt;&lt;i&gt;&amp;nbsp;POST&lt;/i&gt;&lt;br&gt;&lt;b&gt;/doLogin&lt;br&gt;&lt;/b&gt;user&lt;br&gt;pass&lt;br&gt;&lt;/font&gt;" style="text;html=1;align=center;verticalAlign=middle;resizable=0;points=[];autosize=1;strokeColor=none;fillColor=none;" parent="1" vertex="1">
          <mxGeometry x="-191.5" y="432.5" width="80" height="80" as="geometry" />
        </mxCell>
        <mxCell id="tjZRGbeKw34wrT0C9eUE-34" value="" style="group" parent="1" vertex="1" connectable="0">
          <mxGeometry x="-104.5" y="900" width="20" height="20" as="geometry" />
        </mxCell>
        <mxCell id="tjZRGbeKw34wrT0C9eUE-32" value="" style="endArrow=none;html=1;rounded=0;strokeWidth=2;fillColor=#d5e8d4;strokeColor=#009900;" parent="tjZRGbeKw34wrT0C9eUE-34" edge="1">
          <mxGeometry width="50" height="50" relative="1" as="geometry">
            <mxPoint y="20" as="sourcePoint" />
            <mxPoint x="20" as="targetPoint" />
          </mxGeometry>
        </mxCell>
        <mxCell id="tjZRGbeKw34wrT0C9eUE-33" value="" style="endArrow=none;html=1;rounded=0;strokeWidth=2;fillColor=#d5e8d4;strokeColor=#009900;" parent="tjZRGbeKw34wrT0C9eUE-34" edge="1">
          <mxGeometry width="50" height="50" relative="1" as="geometry">
            <mxPoint x="20" y="20" as="sourcePoint" />
            <mxPoint as="targetPoint" />
          </mxGeometry>
        </mxCell>
        <mxCell id="ImflFla28foKCNnRYuBp-1" value="&lt;font style=&quot;&quot;&gt;&lt;span style=&quot;font-size: 14px;&quot;&gt;setAttribute(&quot;user&quot;, username)&lt;/span&gt;&lt;br&gt;&lt;/font&gt;" style="text;html=1;align=center;verticalAlign=middle;resizable=0;points=[];autosize=1;strokeColor=none;fillColor=none;" parent="1" vertex="1">
          <mxGeometry x="-85.5" y="573" width="210" height="30" as="geometry" />
        </mxCell>
        <mxCell id="lFbvkqLxVyMuqr9iLAXJ-6" value="" style="group" parent="1" vertex="1" connectable="0">
          <mxGeometry x="-190" y="567" width="45" height="25.75" as="geometry" />
        </mxCell>
        <mxCell id="lFbvkqLxVyMuqr9iLAXJ-4" value="" style="shape=card;whiteSpace=wrap;html=1;rotation=90;flipH=1;strokeColor=none;fillColor=#009900;size=10;" parent="lFbvkqLxVyMuqr9iLAXJ-6" vertex="1">
          <mxGeometry x="10" y="-9.25" width="25" height="45" as="geometry" />
        </mxCell>
        <mxCell id="lFbvkqLxVyMuqr9iLAXJ-5" value="&lt;font color=&quot;#ffffff&quot;&gt;&lt;b&gt;alt&lt;/b&gt;&lt;/font&gt;" style="text;html=1;strokeColor=none;fillColor=none;align=center;verticalAlign=middle;whiteSpace=wrap;rounded=0;" parent="lFbvkqLxVyMuqr9iLAXJ-6" vertex="1">
          <mxGeometry y="2" width="40" height="22.5" as="geometry" />
        </mxCell>
        <mxCell id="lFbvkqLxVyMuqr9iLAXJ-19" value="&lt;font color=&quot;#009900&quot; style=&quot;&quot;&gt;&lt;span style=&quot;font-size: 15px;&quot;&gt;&lt;i&gt;&amp;lt;&amp;lt;HttpSession&amp;gt;&amp;gt;&lt;/i&gt;&lt;/span&gt;&lt;br&gt;&lt;span style=&quot;font-size: 18px;&quot;&gt;&lt;b&gt;session&lt;/b&gt;&lt;/span&gt;&lt;br&gt;&lt;/font&gt;" style="rounded=0;whiteSpace=wrap;html=1;strokeWidth=3;fillColor=default;strokeColor=#009900;" parent="1" vertex="1">
          <mxGeometry x="240" y="222" width="150" height="60" as="geometry" />
        </mxCell>
        <mxCell id="lFbvkqLxVyMuqr9iLAXJ-20" value="" style="endArrow=none;html=1;rounded=0;strokeWidth=2;fillColor=#d5e8d4;strokeColor=#009900;dashed=1;entryX=0.5;entryY=1;entryDx=0;entryDy=0;" parent="1" source="lFbvkqLxVyMuqr9iLAXJ-26" target="tjZRGbeKw34wrT0C9eUE-3" edge="1">
          <mxGeometry width="50" height="50" relative="1" as="geometry">
            <mxPoint x="151.5" y="670" as="sourcePoint" />
            <mxPoint x="152" y="300" as="targetPoint" />
          </mxGeometry>
        </mxCell>
        <mxCell id="lFbvkqLxVyMuqr9iLAXJ-21" value="" style="endArrow=none;html=1;rounded=0;entryX=0.5;entryY=1;entryDx=0;entryDy=0;strokeWidth=2;fillColor=#d5e8d4;strokeColor=#009900;dashed=1;" parent="1" target="lFbvkqLxVyMuqr9iLAXJ-26" edge="1">
          <mxGeometry width="50" height="50" relative="1" as="geometry">
            <mxPoint x="150" y="910" as="sourcePoint" />
            <mxPoint x="151.5" y="790" as="targetPoint" />
          </mxGeometry>
        </mxCell>
        <mxCell id="lFbvkqLxVyMuqr9iLAXJ-22" value="" style="endArrow=none;html=1;rounded=0;strokeWidth=2;strokeColor=#009900;startArrow=classic;startFill=1;" parent="1" edge="1">
          <mxGeometry width="50" height="50" relative="1" as="geometry">
            <mxPoint x="140.5" y="429" as="sourcePoint" />
            <mxPoint x="-80" y="429.5" as="targetPoint" />
          </mxGeometry>
        </mxCell>
        <mxCell id="lFbvkqLxVyMuqr9iLAXJ-23" value="&lt;font style=&quot;font-size: 14px;&quot;&gt;loadWithCreds(username,&lt;br&gt;password)&lt;/font&gt;" style="text;html=1;align=center;verticalAlign=middle;resizable=0;points=[];autosize=1;strokeColor=none;fillColor=none;" parent="1" vertex="1">
          <mxGeometry x="-75" y="382.5" width="190" height="50" as="geometry" />
        </mxCell>
        <mxCell id="lFbvkqLxVyMuqr9iLAXJ-24" value="" style="endArrow=none;html=1;rounded=0;strokeWidth=2;strokeColor=#009900;startArrow=classic;startFill=1;" parent="1" edge="1">
          <mxGeometry width="50" height="50" relative="1" as="geometry">
            <mxPoint x="-80" y="499.5" as="sourcePoint" />
            <mxPoint x="140.5" y="499" as="targetPoint" />
          </mxGeometry>
        </mxCell>
        <mxCell id="lFbvkqLxVyMuqr9iLAXJ-25" value="&lt;font style=&quot;font-size: 14px;&quot;&gt;&lt;i&gt;User&lt;/i&gt; user&lt;/font&gt;" style="text;html=1;align=center;verticalAlign=middle;resizable=0;points=[];autosize=1;strokeColor=none;fillColor=none;" parent="1" vertex="1">
          <mxGeometry x="-20" y="469.5" width="80" height="30" as="geometry" />
        </mxCell>
        <mxCell id="lFbvkqLxVyMuqr9iLAXJ-26" value="" style="rounded=0;whiteSpace=wrap;html=1;fillColor=#FFFFFF;strokeWidth=2;strokeColor=#009900;" parent="1" vertex="1">
          <mxGeometry x="139" y="415" width="25" height="115" as="geometry" />
        </mxCell>
        <mxCell id="OoSDMikyx4kGt9QmXM6N-1" value="&lt;font style=&quot;&quot;&gt;&lt;i style=&quot;&quot;&gt;&lt;font style=&quot;font-size: 14px;&quot;&gt;[user!=null]&lt;/font&gt;&lt;/i&gt;&lt;br&gt;&lt;/font&gt;" style="text;html=1;align=center;verticalAlign=middle;resizable=0;points=[];autosize=1;strokeColor=none;fillColor=none;" parent="1" vertex="1">
          <mxGeometry x="-196.5" y="589" width="90" height="30" as="geometry" />
        </mxCell>
        <mxCell id="gv3iIMHmHTU7CUkVYJSH-4" value="" style="rounded=0;whiteSpace=wrap;html=1;fillColor=#FFFFFF;strokeWidth=2;strokeColor=#009900;" vertex="1" parent="1">
          <mxGeometry x="466.5" y="650" width="25" height="60" as="geometry" />
        </mxCell>
        <mxCell id="gv3iIMHmHTU7CUkVYJSH-5" value="" style="endArrow=none;html=1;rounded=0;strokeWidth=2;fillColor=#d5e8d4;strokeColor=#009900;dashed=1;entryX=0.5;entryY=1;entryDx=0;entryDy=0;" edge="1" parent="1" source="gv3iIMHmHTU7CUkVYJSH-4" target="gv3iIMHmHTU7CUkVYJSH-7">
          <mxGeometry width="50" height="50" relative="1" as="geometry">
            <mxPoint x="479" y="671" as="sourcePoint" />
            <mxPoint x="479" y="300" as="targetPoint" />
          </mxGeometry>
        </mxCell>
        <mxCell id="gv3iIMHmHTU7CUkVYJSH-6" value="" style="endArrow=none;html=1;rounded=0;strokeWidth=2;fillColor=#d5e8d4;strokeColor=#009900;dashed=1;entryX=0.492;entryY=1.014;entryDx=0;entryDy=0;entryPerimeter=0;" edge="1" parent="1" target="gv3iIMHmHTU7CUkVYJSH-4">
          <mxGeometry width="50" height="50" relative="1" as="geometry">
            <mxPoint x="479" y="910" as="sourcePoint" />
            <mxPoint x="479" y="775" as="targetPoint" />
          </mxGeometry>
        </mxCell>
        <mxCell id="gv3iIMHmHTU7CUkVYJSH-7" value="&lt;font color=&quot;#009900&quot; style=&quot;&quot;&gt;&lt;span style=&quot;font-size: 15px;&quot;&gt;&lt;i&gt;&amp;lt;&amp;lt;HttpServlet&amp;gt;&amp;gt;&lt;/i&gt;&lt;/span&gt;&lt;br&gt;&lt;span style=&quot;font-size: 18px;&quot;&gt;&lt;b&gt;home&lt;/b&gt;&lt;/span&gt;&lt;br&gt;&lt;/font&gt;" style="rounded=0;whiteSpace=wrap;html=1;strokeWidth=3;fillColor=default;strokeColor=#009900;" vertex="1" parent="1">
          <mxGeometry x="404" y="222" width="150" height="60" as="geometry" />
        </mxCell>
        <mxCell id="gv3iIMHmHTU7CUkVYJSH-8" value="" style="endArrow=none;html=1;rounded=0;strokeWidth=2;strokeColor=#009900;startArrow=classic;startFill=1;" edge="1" parent="1">
          <mxGeometry width="50" height="50" relative="1" as="geometry">
            <mxPoint x="465" y="670" as="sourcePoint" />
            <mxPoint x="-80" y="670" as="targetPoint" />
          </mxGeometry>
        </mxCell>
        <mxCell id="gv3iIMHmHTU7CUkVYJSH-9" value="&lt;font style=&quot;&quot;&gt;&lt;span style=&quot;font-size: 14px;&quot;&gt;resp.sendRedirect&lt;/span&gt;&lt;br&gt;&lt;/font&gt;" style="text;html=1;align=center;verticalAlign=middle;resizable=0;points=[];autosize=1;strokeColor=none;fillColor=none;" vertex="1" parent="1">
          <mxGeometry x="-50" y="643" width="140" height="30" as="geometry" />
        </mxCell>
        <mxCell id="gv3iIMHmHTU7CUkVYJSH-10" value="" style="endArrow=none;html=1;rounded=0;strokeWidth=1;fillColor=#d5e8d4;strokeColor=#009900;dashed=1;dashPattern=8 8;" edge="1" parent="1">
          <mxGeometry width="50" height="50" relative="1" as="geometry">
            <mxPoint x="-190" y="720" as="sourcePoint" />
            <mxPoint x="530" y="720" as="targetPoint" />
          </mxGeometry>
        </mxCell>
        <mxCell id="gv3iIMHmHTU7CUkVYJSH-11" value="&lt;font style=&quot;&quot;&gt;&lt;i style=&quot;&quot;&gt;&lt;font style=&quot;font-size: 14px;&quot;&gt;[user==null]&lt;/font&gt;&lt;/i&gt;&lt;br&gt;&lt;/font&gt;" style="text;html=1;align=center;verticalAlign=middle;resizable=0;points=[];autosize=1;strokeColor=none;fillColor=none;" vertex="1" parent="1">
          <mxGeometry x="-202.5" y="720" width="100" height="30" as="geometry" />
        </mxCell>
        <mxCell id="gv3iIMHmHTU7CUkVYJSH-12" value="" style="endArrow=none;html=1;rounded=0;strokeWidth=2;strokeColor=#009900;startArrow=classic;startFill=1;" edge="1" parent="1">
          <mxGeometry width="50" height="50" relative="1" as="geometry">
            <mxPoint x="-80" y="790" as="sourcePoint" />
            <mxPoint x="-80" y="770" as="targetPoint" />
            <Array as="points">
              <mxPoint x="-50" y="790" />
              <mxPoint x="-50" y="770" />
            </Array>
          </mxGeometry>
        </mxCell>
        <mxCell id="gv3iIMHmHTU7CUkVYJSH-13" value="&lt;font style=&quot;&quot;&gt;&lt;span style=&quot;font-size: 14px;&quot;&gt;resp.sendRedirect&lt;/span&gt;&lt;br&gt;&lt;/font&gt;" style="text;html=1;align=center;verticalAlign=middle;resizable=0;points=[];autosize=1;strokeColor=none;fillColor=none;" vertex="1" parent="1">
          <mxGeometry x="-60" y="764" width="140" height="30" as="geometry" />
        </mxCell>
        <mxCell id="gv3iIMHmHTU7CUkVYJSH-14" value="" style="endArrow=none;html=1;rounded=0;exitX=0;exitY=0.25;exitDx=0;exitDy=0;strokeWidth=2;strokeColor=#009900;startArrow=classic;startFill=1;" edge="1" parent="1">
          <mxGeometry width="50" height="50" relative="1" as="geometry">
            <mxPoint x="-109.5" y="386" as="sourcePoint" />
            <mxPoint x="-232" y="386" as="targetPoint" />
          </mxGeometry>
        </mxCell>
        <mxCell id="gv3iIMHmHTU7CUkVYJSH-15" value="&lt;font style=&quot;font-size: 14px;&quot;&gt;doPost&lt;/font&gt;" style="text;html=1;align=center;verticalAlign=middle;resizable=0;points=[];autosize=1;strokeColor=none;fillColor=none;" vertex="1" parent="1">
          <mxGeometry x="-197" y="360" width="70" height="30" as="geometry" />
        </mxCell>
      </root>
    </mxGraphModel>
  </diagram>
</mxfile>
